STARTFONT 2.1
COMMENT (null)
FONT -Misc-Fixed-Medium-R-Normal-IBMPC-14-120-75-75-C-80-ISO8859-1
SIZE 13 78 78
FONTBOUNDINGBOX 8 14 0 -3
STARTPROPERTIES 19
FONTNAME_REGISTRY ""
FOUNDRY "Misc"
FAMILY_NAME "Fixed"
WEIGHT_NAME "Medium"
SLANT "R"
SETWIDTH_NAME "Normal"
ADD_STYLE_NAME "IBMPC"
PIXEL_SIZE 14
POINT_SIZE 120
RESOLUTION_X 75
RESOLUTION_Y 75
SPACING "C"
AVERAGE_WIDTH 80
CHARSET_REGISTRY "ISO8859"
CHARSET_ENCODING "1"
DEFAULT_CHAR 0
FONT_DESCENT 3
FONT_ASCENT 11
COPYRIGHT "Public domain font.  Share and enjoy."
ENDPROPERTIES
CHARS 256
STARTCHAR C000
ENCODING 0
SWIDTH 666 0
DWIDTH 8 0
BBX 8 14 0 -3
BITMAP
0000
0000
0000
0000
0000
0000
0000
0000
0000
0000
0000
0000
0000
0000
ENDCHAR
STARTCHAR C001
ENCODING 1
SWIDTH 666 0
DWIDTH 8 0
BBX 8 14 0 -3
BITMAP
0000
0000
7e00
8100
a500
8100
8100
bd00
9900
8100
7e00
0000
0000
0000
ENDCHAR
STARTCHAR C002
ENCODING 2
SWIDTH 666 0
DWIDTH 8 0
BBX 8 14 0 -3
BITMAP
0000
0000
7e00
ff00
db00
ff00
ff00
c300
e700
ff00
7e00
0000
0000
0000
ENDCHAR
STARTCHAR C003
ENCODING 3
SWIDTH 666 0
DWIDTH 8 0
BBX 8 14 0 -3
BITMAP
0000
0000
0000
6c00
ee00
fe00
fe00
fe00
7c00
3800
1000
0000
0000
0000
ENDCHAR
STARTCHAR C004
ENCODING 4
SWIDTH 666 0
DWIDTH 8 0
BBX 8 14 0 -3
BITMAP
0000
0000
0000
1000
3800
7c00
fe00
7c00
3800
1000
0000
0000
0000
0000
ENDCHAR
STARTCHAR C005
ENCODING 5
SWIDTH 666 0
DWIDTH 8 0
BBX 8 14 0 -3
BITMAP
0000
0000
0000
1000
3800
1000
6c00
ee00
6c00
1000
3800
0000
0000
0000
ENDCHAR
STARTCHAR C006
ENCODING 6
SWIDTH 666 0
DWIDTH 8 0
BBX 8 14 0 -3
BITMAP
0000
0000
1000
3800
7c00
7c00
fe00
fe00
6c00
1000
3800
0000
0000
0000
ENDCHAR
STARTCHAR C007
ENCODING 7
SWIDTH 666 0
DWIDTH 8 0
BBX 8 14 0 -3
BITMAP
0000
0000
0000
0000
0000
1800
3c00
3c00
1800
0000
0000
0000
0000
0000
ENDCHAR
STARTCHAR C010
ENCODING 8
SWIDTH 666 0
DWIDTH 8 0
BBX 8 14 0 -3
BITMAP
ff00
ff00
ff00
ff00
ff00
e700
c300
c300
e700
ff00
ff00
ff00
ff00
ff00
ENDCHAR
STARTCHAR C011
ENCODING 9
SWIDTH 666 0
DWIDTH 8 0
BBX 8 14 0 -3
BITMAP
0000
0000
0000
0000
1800
3c00
6600
6600
3c00
1800
0000
0000
0000
0000
ENDCHAR
STARTCHAR C012
ENCODING 10
SWIDTH 666 0
DWIDTH 8 0
BBX 8 14 0 -3
BITMAP
ff00
ff00
ff00
ff00
e700
c300
9900
9900
c300
e700
ff00
ff00
ff00
ff00
ENDCHAR
STARTCHAR C013
ENCODING 11
SWIDTH 666 0
DWIDTH 8 0
BBX 8 14 0 -3
BITMAP
0000
0000
1e00
0e00
1e00
3600
7800
cc00
cc00
cc00
7800
0000
0000
0000
ENDCHAR
STARTCHAR C014
ENCODING 12
SWIDTH 666 0
DWIDTH 8 0
BBX 8 14 0 -3
BITMAP
0000
0000
3c00
6600
6600
6600
3c00
1800
7e00
1800
1800
0000
0000
0000
ENDCHAR
STARTCHAR C015
ENCODING 13
SWIDTH 666 0
DWIDTH 8 0
BBX 8 14 0 -3
BITMAP
0000
0000
1e00
1a00
1e00
1800
1800
1800
7800
f800
7000
0000
0000
0000
ENDCHAR
STARTCHAR C016
ENCODING 14
SWIDTH 666 0
DWIDTH 8 0
BBX 8 14 0 -3
BITMAP
0000
3e00
3600
3e00
3600
3600
7600
f600
6600
0e00
1e00
0c00
0000
0000
ENDCHAR
STARTCHAR C017
ENCODING 15
SWIDTH 666 0
DWIDTH 8 0
BBX 8 14 0 -3
BITMAP
0000
1800
db00
7e00
3c00
6600
6600
3c00
7e00
db00
1800
0000
0000
0000
ENDCHAR
STARTCHAR C020
ENCODING 16
SWIDTH 666 0
DWIDTH 8 0
BBX 8 14 0 -3
BITMAP
0000
0000
8000
e000
f000
fc00
fe00
fc00
f000
e000
8000
0000
0000
0000
ENDCHAR
STARTCHAR C021
ENCODING 17
SWIDTH 666 0
DWIDTH 8 0
BBX 8 14 0 -3
BITMAP
0000
0000
0200
0e00
3e00
7e00
fe00
7e00
3e00
0e00
0200
0000
0000
0000
ENDCHAR
STARTCHAR C022
ENCODING 18
SWIDTH 666 0
DWIDTH 8 0
BBX 8 14 0 -3
BITMAP
0000
0000
1800
3c00
7e00
1800
1800
1800
7e00
3c00
1800
0000
0000
0000
ENDCHAR
STARTCHAR C023
ENCODING 19
SWIDTH 666 0
DWIDTH 8 0
BBX 8 14 0 -3
BITMAP
0000
0000
6600
6600
6600
6600
6600
6600
0000
6600
6600
0000
0000
0000
ENDCHAR
STARTCHAR C024
ENCODING 20
SWIDTH 666 0
DWIDTH 8 0
BBX 8 14 0 -3
BITMAP
0000
0000
7f00
db00
db00
db00
7b00
1b00
1b00
1b00
1b00
0000
0000
0000
ENDCHAR
STARTCHAR C025
ENCODING 21
SWIDTH 666 0
DWIDTH 8 0
BBX 8 14 0 -3
BITMAP
0000
7c00
c600
c600
6000
7c00
f600
de00
7c00
0c00
c600
c600
7c00
0000
ENDCHAR
STARTCHAR C026
ENCODING 22
SWIDTH 666 0
DWIDTH 8 0
BBX 8 14 0 -3
BITMAP
0000
0000
0000
0000
0000
0000
0000
0000
fe00
fe00
fe00
0000
0000
0000
ENDCHAR
STARTCHAR C027
ENCODING 23
SWIDTH 666 0
DWIDTH 8 0
BBX 8 14 0 -3
BITMAP
0000
0000
1800
3c00
7e00
1800
1800
7e00
3c00
1800
7e00
0000
0000
0000
ENDCHAR
STARTCHAR C030
ENCODING 24
SWIDTH 666 0
DWIDTH 8 0
BBX 8 14 0 -3
BITMAP
0000
0000
1800
3c00
7e00
1800
1800
1800
1800
1800
1800
0000
0000
0000
ENDCHAR
STARTCHAR C031
ENCODING 25
SWIDTH 666 0
DWIDTH 8 0
BBX 8 14 0 -3
BITMAP
0000
0000
1800
1800
1800
1800
1800
1800
7e00
3c00
1800
0000
0000
0000
ENDCHAR
STARTCHAR C032
ENCODING 26
SWIDTH 666 0
DWIDTH 8 0
BBX 8 14 0 -3
BITMAP
0000
0000
0000
0000
0c00
0e00
ff00
0e00
0c00
0000
0000
0000
0000
0000
ENDCHAR
STARTCHAR C033
ENCODING 27
SWIDTH 666 0
DWIDTH 8 0
BBX 8 14 0 -3
BITMAP
0000
0000
0000
0000
3000
7000
fe00
7000
3000
0000
0000
0000
0000
0000
ENDCHAR
STARTCHAR C034
ENCODING 28
SWIDTH 666 0
DWIDTH 8 0
BBX 8 14 0 -3
BITMAP
0000
0000
0000
0000
0000
c000
c000
c000
fe00
0000
0000
0000
0000
0000
ENDCHAR
STARTCHAR C035
ENCODING 29
SWIDTH 666 0
DWIDTH 8 0
BBX 8 14 0 -3
BITMAP
0000
0000
0000
0000
2400
6600
ff00
6600
2400
0000
0000
0000
0000
0000
ENDCHAR
STARTCHAR C036
ENCODING 30
SWIDTH 666 0
DWIDTH 8 0
BBX 8 14 0 -3
BITMAP
0000
0000
1000
3800
3800
3800
7c00
7c00
fe00
fe00
0000
0000
0000
0000
ENDCHAR
STARTCHAR C037
ENCODING 31
SWIDTH 666 0
DWIDTH 8 0
BBX 8 14 0 -3
BITMAP
0000
0000
fe00
fe00
7c00
7c00
7c00
3800
3800
1000
0000
0000
0000
0000
ENDCHAR
STARTCHAR C040
ENCODING 32
SWIDTH 666 0
DWIDTH 8 0
BBX 8 14 0 -3
BITMAP
0000
0000
0000
0000
0000
0000
0000
0000
0000
0000
0000
0000
0000
0000
ENDCHAR
STARTCHAR !
ENCODING 33
SWIDTH 666 0
DWIDTH 8 0
BBX 8 14 0 -3
BITMAP
0000
0000
1800
3c00
3c00
3c00
1800
1800
0000
1800
1800
0000
0000
0000
ENDCHAR
STARTCHAR "
ENCODING 34
SWIDTH 666 0
DWIDTH 8 0
BBX 8 14 0 -3
BITMAP
0000
3600
3600
3600
1400
0000
0000
0000
0000
0000
0000
0000
0000
0000
ENDCHAR
STARTCHAR #
ENCODING 35
SWIDTH 666 0
DWIDTH 8 0
BBX 8 14 0 -3
BITMAP
0000
0000
6c00
6c00
6c00
fe00
6c00
6c00
fe00
6c00
6c00
0000
0000
0000
ENDCHAR
STARTCHAR $
ENCODING 36
SWIDTH 666 0
DWIDTH 8 0
BBX 8 14 0 -3
BITMAP
0000
1800
1800
7c00
c600
c000
7800
3c00
0600
c600
7c00
1800
1800
0000
ENDCHAR
STARTCHAR %
ENCODING 37
SWIDTH 666 0
DWIDTH 8 0
BBX 8 14 0 -3
BITMAP
0000
0000
0000
0000
6200
6600
0c00
1800
3000
6600
c600
0000
0000
0000
ENDCHAR
STARTCHAR &
ENCODING 38
SWIDTH 666 0
DWIDTH 8 0
BBX 8 14 0 -3
BITMAP
0000
0000
3800
6c00
3800
3800
7600
f600
ce00
cc00
7600
0000
0000
0000
ENDCHAR
STARTCHAR '
ENCODING 39
SWIDTH 666 0
DWIDTH 8 0
BBX 8 14 0 -3
BITMAP
0000
0c00
0c00
0c00
1800
0000
0000
0000
0000
0000
0000
0000
0000
0000
ENDCHAR
STARTCHAR (
ENCODING 40
SWIDTH 666 0
DWIDTH 8 0
BBX 8 14 0 -3
BITMAP
0000
0000
0c00
1800
3000
3000
3000
3000
3000
1800
0c00
0000
0000
0000
ENDCHAR
STARTCHAR )
ENCODING 41
SWIDTH 666 0
DWIDTH 8 0
BBX 8 14 0 -3
BITMAP
0000
0000
3000
1800
0c00
0c00
0c00
0c00
0c00
1800
3000
0000
0000
0000
ENDCHAR
STARTCHAR *
ENCODING 42
SWIDTH 666 0
DWIDTH 8 0
BBX 8 14 0 -3
BITMAP
0000
0000
0000
0000
6c00
3800
fe00
3800
6c00
0000
0000
0000
0000
0000
ENDCHAR
STARTCHAR +
ENCODING 43
SWIDTH 666 0
DWIDTH 8 0
BBX 8 14 0 -3
BITMAP
0000
0000
0000
0000
1800
1800
7e00
1800
1800
0000
0000
0000
0000
0000
ENDCHAR
STARTCHAR ,
ENCODING 44
SWIDTH 666 0
DWIDTH 8 0
BBX 8 14 0 -3
BITMAP
0000
0000
0000
0000
0000
0000
0000
0000
0c00
0c00
0c00
1800
0000
0000
ENDCHAR
STARTCHAR -
ENCODING 45
SWIDTH 666 0
DWIDTH 8 0
BBX 8 14 0 -3
BITMAP
0000
0000
0000
0000
0000
0000
fe00
0000
0000
0000
0000
0000
0000
0000
ENDCHAR
STARTCHAR .
ENCODING 46
SWIDTH 666 0
DWIDTH 8 0
BBX 8 14 0 -3
BITMAP
0000
0000
0000
0000
0000
0000
0000
0000
0000
1800
1800
0000
0000
0000
ENDCHAR
STARTCHAR /
ENCODING 47
SWIDTH 666 0
DWIDTH 8 0
BBX 8 14 0 -3
BITMAP
0000
0000
0000
0200
0600
0c00
1800
3000
6000
c000
8000
0000
0000
0000
ENDCHAR
STARTCHAR 0
ENCODING 48
SWIDTH 666 0
DWIDTH 8 0
BBX 8 14 0 -3
BITMAP
0000
0000
7c00
c600
ce00
de00
f600
e600
c600
c600
7c00
0000
0000
0000
ENDCHAR
STARTCHAR 1
ENCODING 49
SWIDTH 666 0
DWIDTH 8 0
BBX 8 14 0 -3
BITMAP
0000
0000
1800
7800
1800
1800
1800
1800
1800
1800
7e00
0000
0000
0000
ENDCHAR
STARTCHAR 2
ENCODING 50
SWIDTH 666 0
DWIDTH 8 0
BBX 8 14 0 -3
BITMAP
0000
0000
7c00
c600
c600
0c00
1800
3000
6000
c600
fe00
0000
0000
0000
ENDCHAR
STARTCHAR 3
ENCODING 51
SWIDTH 666 0
DWIDTH 8 0
BBX 8 14 0 -3
BITMAP
0000
0000
7c00
c600
0600
0600
3c00
0600
0600
c600
7c00
0000
0000
0000
ENDCHAR
STARTCHAR 4
ENCODING 52
SWIDTH 666 0
DWIDTH 8 0
BBX 8 14 0 -3
BITMAP
0000
0000
0c00
1c00
3c00
6c00
cc00
fe00
0c00
0c00
0c00
0000
0000
0000
ENDCHAR
STARTCHAR 5
ENCODING 53
SWIDTH 666 0
DWIDTH 8 0
BBX 8 14 0 -3
BITMAP
0000
0000
fe00
c000
c000
c000
fc00
0600
0600
c600
7c00
0000
0000
0000
ENDCHAR
STARTCHAR 6
ENCODING 54
SWIDTH 666 0
DWIDTH 8 0
BBX 8 14 0 -3
BITMAP
0000
0000
7c00
c600
c000
c000
fc00
c600
c600
c600
7c00
0000
0000
0000
ENDCHAR
STARTCHAR 7
ENCODING 55
SWIDTH 666 0
DWIDTH 8 0
BBX 8 14 0 -3
BITMAP
0000
0000
fe00
c600
0c00
1800
3000
3000
3000
3000
3000
0000
0000
0000
ENDCHAR
STARTCHAR 8
ENCODING 56
SWIDTH 666 0
DWIDTH 8 0
BBX 8 14 0 -3
BITMAP
0000
0000
7c00
c600
c600
c600
7c00
c600
c600
c600
7c00
0000
0000
0000
ENDCHAR
STARTCHAR 9
ENCODING 57
SWIDTH 666 0
DWIDTH 8 0
BBX 8 14 0 -3
BITMAP
0000
0000
7c00
c600
c600
c600
7e00
0600
0600
c600
7c00
0000
0000
0000
ENDCHAR
STARTCHAR :
ENCODING 58
SWIDTH 666 0
DWIDTH 8 0
BBX 8 14 0 -3
BITMAP
0000
0000
0000
0000
0c00
0c00
0000
0000
0c00
0c00
0000
0000
0000
0000
ENDCHAR
STARTCHAR ;
ENCODING 59
SWIDTH 666 0
DWIDTH 8 0
BBX 8 14 0 -3
BITMAP
0000
0000
0000
0000
0c00
0c00
0000
0000
0c00
0c00
0c00
1800
0000
0000
ENDCHAR
STARTCHAR <
ENCODING 60
SWIDTH 666 0
DWIDTH 8 0
BBX 8 14 0 -3
BITMAP
0000
0000
0c00
1800
3000
6000
c000
6000
3000
1800
0c00
0000
0000
0000
ENDCHAR
STARTCHAR =
ENCODING 61
SWIDTH 666 0
DWIDTH 8 0
BBX 8 14 0 -3
BITMAP
0000
0000
0000
0000
0000
fe00
0000
fe00
0000
0000
0000
0000
0000
0000
ENDCHAR
STARTCHAR >
ENCODING 62
SWIDTH 666 0
DWIDTH 8 0
BBX 8 14 0 -3
BITMAP
0000
0000
6000
3000
1800
0c00
0600
0c00
1800
3000
6000
0000
0000
0000
ENDCHAR
STARTCHAR ?
ENCODING 63
SWIDTH 666 0
DWIDTH 8 0
BBX 8 14 0 -3
BITMAP
0000
0000
7c00
c600
c600
0c00
1800
1800
0000
1800
1800
0000
0000
0000
ENDCHAR
STARTCHAR @
ENCODING 64
SWIDTH 666 0
DWIDTH 8 0
BBX 8 14 0 -3
BITMAP
0000
0000
7c00
c600
c600
de00
de00
de00
dc00
c000
7e00
0000
0000
0000
ENDCHAR
STARTCHAR A
ENCODING 65
SWIDTH 666 0
DWIDTH 8 0
BBX 8 14 0 -3
BITMAP
0000
0000
3800
6c00
c600
c600
c600
fe00
c600
c600
c600
0000
0000
0000
ENDCHAR
STARTCHAR B
ENCODING 66
SWIDTH 666 0
DWIDTH 8 0
BBX 8 14 0 -3
BITMAP
0000
0000
fc00
6600
6600
6600
7c00
6600
6600
6600
fc00
0000
0000
0000
ENDCHAR
STARTCHAR C
ENCODING 67
SWIDTH 666 0
DWIDTH 8 0
BBX 8 14 0 -3
BITMAP
0000
0000
3c00
6600
c000
c000
c000
c000
c000
6600
3c00
0000
0000
0000
ENDCHAR
STARTCHAR D
ENCODING 68
SWIDTH 666 0
DWIDTH 8 0
BBX 8 14 0 -3
BITMAP
0000
0000
f800
6c00
6600
6600
6600
6600
6600
6c00
f800
0000
0000
0000
ENDCHAR
STARTCHAR E
ENCODING 69
SWIDTH 666 0
DWIDTH 8 0
BBX 8 14 0 -3
BITMAP
0000
0000
fe00
6600
6000
6000
7c00
6000
6000
6600
fe00
0000
0000
0000
ENDCHAR
STARTCHAR F
ENCODING 70
SWIDTH 666 0
DWIDTH 8 0
BBX 8 14 0 -3
BITMAP
0000
0000
fe00
6600
6000
6000
7c00
6000
6000
6000
f000
0000
0000
0000
ENDCHAR
STARTCHAR G
ENCODING 71
SWIDTH 666 0
DWIDTH 8 0
BBX 8 14 0 -3
BITMAP
0000
0000
7c00
c600
c600
c000
c000
ce00
c600
c600
7c00
0000
0000
0000
ENDCHAR
STARTCHAR H
ENCODING 72
SWIDTH 666 0
DWIDTH 8 0
BBX 8 14 0 -3
BITMAP
0000
0000
c600
c600
c600
c600
fe00
c600
c600
c600
c600
0000
0000
0000
ENDCHAR
STARTCHAR I
ENCODING 73
SWIDTH 666 0
DWIDTH 8 0
BBX 8 14 0 -3
BITMAP
0000
0000
3c00
1800
1800
1800
1800
1800
1800
1800
3c00
0000
0000
0000
ENDCHAR
STARTCHAR J
ENCODING 74
SWIDTH 666 0
DWIDTH 8 0
BBX 8 14 0 -3
BITMAP
0000
0000
3c00
1800
1800
1800
1800
1800
d800
d800
7000
0000
0000
0000
ENDCHAR
STARTCHAR K
ENCODING 75
SWIDTH 666 0
DWIDTH 8 0
BBX 8 14 0 -3
BITMAP
0000
0000
c600
cc00
d800
f000
f000
d800
cc00
c600
c600
0000
0000
0000
ENDCHAR
STARTCHAR L
ENCODING 76
SWIDTH 666 0
DWIDTH 8 0
BBX 8 14 0 -3
BITMAP
0000
0000
f000
6000
6000
6000
6000
6000
6200
6600
fe00
0000
0000
0000
ENDCHAR
STARTCHAR M
ENCODING 77
SWIDTH 666 0
DWIDTH 8 0
BBX 8 14 0 -3
BITMAP
0000
0000
c600
c600
ee00
fe00
d600
d600
d600
c600
c600
0000
0000
0000
ENDCHAR
STARTCHAR N
ENCODING 78
SWIDTH 666 0
DWIDTH 8 0
BBX 8 14 0 -3
BITMAP
0000
0000
c600
c600
e600
e600
f600
de00
ce00
ce00
c600
0000
0000
0000
ENDCHAR
STARTCHAR O
ENCODING 79
SWIDTH 666 0
DWIDTH 8 0
BBX 8 14 0 -3
BITMAP
0000
0000
7c00
c600
c600
c600
c600
c600
c600
c600
7c00
0000
0000
0000
ENDCHAR
STARTCHAR P
ENCODING 80
SWIDTH 666 0
DWIDTH 8 0
BBX 8 14 0 -3
BITMAP
0000
0000
fc00
6600
6600
6600
7c00
6000
6000
6000
f000
0000
0000
0000
ENDCHAR
STARTCHAR Q
ENCODING 81
SWIDTH 666 0
DWIDTH 8 0
BBX 8 14 0 -3
BITMAP
0000
0000
7c00
c600
c600
c600
c600
c600
c600
d600
7c00
0600
0000
0000
ENDCHAR
STARTCHAR R
ENCODING 82
SWIDTH 666 0
DWIDTH 8 0
BBX 8 14 0 -3
BITMAP
0000
0000
fc00
6600
6600
6600
7c00
7800
6c00
6600
e600
0000
0000
0000
ENDCHAR
STARTCHAR S
ENCODING 83
SWIDTH 666 0
DWIDTH 8 0
BBX 8 14 0 -3
BITMAP
0000
0000
7c00
c600
c000
6000
3800
0c00
0600
c600
7c00
0000
0000
0000
ENDCHAR
STARTCHAR T
ENCODING 84
SWIDTH 666 0
DWIDTH 8 0
BBX 8 14 0 -3
BITMAP
0000
0000
7e00
5a00
1800
1800
1800
1800
1800
1800
3c00
0000
0000
0000
ENDCHAR
STARTCHAR U
ENCODING 85
SWIDTH 666 0
DWIDTH 8 0
BBX 8 14 0 -3
BITMAP
0000
0000
c600
c600
c600
c600
c600
c600
c600
c600
7c00
0000
0000
0000
ENDCHAR
STARTCHAR V
ENCODING 86
SWIDTH 666 0
DWIDTH 8 0
BBX 8 14 0 -3
BITMAP
0000
0000
c600
c600
c600
c600
c600
c600
6c00
3800
1000
0000
0000
0000
ENDCHAR
STARTCHAR W
ENCODING 87
SWIDTH 666 0
DWIDTH 8 0
BBX 8 14 0 -3
BITMAP
0000
0000
c600
c600
d600
d600
d600
fe00
ee00
c600
c600
0000
0000
0000
ENDCHAR
STARTCHAR X
ENCODING 88
SWIDTH 666 0
DWIDTH 8 0
BBX 8 14 0 -3
BITMAP
0000
0000
c600
c600
6c00
3800
3800
3800
6c00
c600
c600
0000
0000
0000
ENDCHAR
STARTCHAR Y
ENCODING 89
SWIDTH 666 0
DWIDTH 8 0
BBX 8 14 0 -3
BITMAP
0000
0000
6600
6600
6600
6600
3c00
1800
1800
1800
3c00
0000
0000
0000
ENDCHAR
STARTCHAR Z
ENCODING 90
SWIDTH 666 0
DWIDTH 8 0
BBX 8 14 0 -3
BITMAP
0000
0000
fe00
c600
8c00
1800
3000
6000
c200
c600
fe00
0000
0000
0000
ENDCHAR
STARTCHAR [
ENCODING 91
SWIDTH 666 0
DWIDTH 8 0
BBX 8 14 0 -3
BITMAP
0000
0000
7c00
6000
6000
6000
6000
6000
6000
6000
7c00
0000
0000
0000
ENDCHAR
STARTCHAR \
ENCODING 92
SWIDTH 666 0
DWIDTH 8 0
BBX 8 14 0 -3
BITMAP
0000
0000
0000
8000
c000
6000
3000
1800
0c00
0600
0200
0000
0000
0000
ENDCHAR
STARTCHAR ]
ENCODING 93
SWIDTH 666 0
DWIDTH 8 0
BBX 8 14 0 -3
BITMAP
0000
0000
7c00
0c00
0c00
0c00
0c00
0c00
0c00
0c00
7c00
0000
0000
0000
ENDCHAR
STARTCHAR ^
ENCODING 94
SWIDTH 666 0
DWIDTH 8 0
BBX 8 14 0 -3
BITMAP
0000
1000
3800
6c00
c600
0000
0000
0000
0000
0000
0000
0000
0000
0000
ENDCHAR
STARTCHAR _
ENCODING 95
SWIDTH 666 0
DWIDTH 8 0
BBX 8 14 0 -3
BITMAP
0000
0000
0000
0000
0000
0000
0000
0000
0000
0000
0000
0000
ff00
0000
ENDCHAR
STARTCHAR `
ENCODING 96
SWIDTH 666 0
DWIDTH 8 0
BBX 8 14 0 -3
BITMAP
0000
1800
1800
1800
0c00
0000
0000
0000
0000
0000
0000
0000
0000
0000
ENDCHAR
STARTCHAR a
ENCODING 97
SWIDTH 666 0
DWIDTH 8 0
BBX 8 14 0 -3
BITMAP
0000
0000
0000
0000
0000
7800
0c00
7c00
cc00
dc00
7600
0000
0000
0000
ENDCHAR
STARTCHAR b
ENCODING 98
SWIDTH 666 0
DWIDTH 8 0
BBX 8 14 0 -3
BITMAP
0000
0000
e000
6000
6000
7c00
6600
6600
6600
6600
fc00
0000
0000
0000
ENDCHAR
STARTCHAR c
ENCODING 99
SWIDTH 666 0
DWIDTH 8 0
BBX 8 14 0 -3
BITMAP
0000
0000
0000
0000
0000
7c00
c600
c000
c000
c600
7c00
0000
0000
0000
ENDCHAR
STARTCHAR d
ENCODING 100
SWIDTH 666 0
DWIDTH 8 0
BBX 8 14 0 -3
BITMAP
0000
0000
1c00
0c00
0c00
7c00
cc00
cc00
cc00
cc00
7e00
0000
0000
0000
ENDCHAR
STARTCHAR e
ENCODING 101
SWIDTH 666 0
DWIDTH 8 0
BBX 8 14 0 -3
BITMAP
0000
0000
0000
0000
0000
7c00
c600
fe00
c000
c600
7c00
0000
0000
0000
ENDCHAR
STARTCHAR f
ENCODING 102
SWIDTH 666 0
DWIDTH 8 0
BBX 8 14 0 -3
BITMAP
0000
0000
1c00
3600
3000
3000
fc00
3000
3000
3000
7800
0000
0000
0000
ENDCHAR
STARTCHAR g
ENCODING 103
SWIDTH 666 0
DWIDTH 8 0
BBX 8 14 0 -3
BITMAP
0000
0000
0000
0000
0000
7600
ce00
c600
c600
7e00
0600
c600
7c00
0000
ENDCHAR
STARTCHAR h
ENCODING 104
SWIDTH 666 0
DWIDTH 8 0
BBX 8 14 0 -3
BITMAP
0000
0000
e000
6000
6000
6c00
7600
6600
6600
6600
e600
0000
0000
0000
ENDCHAR
STARTCHAR i
ENCODING 105
SWIDTH 666 0
DWIDTH 8 0
BBX 8 14 0 -3
BITMAP
0000
0000
1800
1800
0000
3800
1800
1800
1800
1800
3c00
0000
0000
0000
ENDCHAR
STARTCHAR j
ENCODING 106
SWIDTH 666 0
DWIDTH 8 0
BBX 8 14 0 -3
BITMAP
0000
0000
0c00
0c00
0000
1c00
0c00
0c00
0c00
0c00
cc00
cc00
7800
0000
ENDCHAR
STARTCHAR k
ENCODING 107
SWIDTH 666 0
DWIDTH 8 0
BBX 8 14 0 -3
BITMAP
0000
0000
e000
6000
6000
6600
6c00
7800
6c00
6600
e600
0000
0000
0000
ENDCHAR
STARTCHAR l
ENCODING 108
SWIDTH 666 0
DWIDTH 8 0
BBX 8 14 0 -3
BITMAP
0000
0000
3800
1800
1800
1800
1800
1800
1800
1800
3c00
0000
0000
0000
ENDCHAR
STARTCHAR m
ENCODING 109
SWIDTH 666 0
DWIDTH 8 0
BBX 8 14 0 -3
BITMAP
0000
0000
0000
0000
0000
6c00
fe00
d600
d600
c600
c600
0000
0000
0000
ENDCHAR
STARTCHAR n
ENCODING 110
SWIDTH 666 0
DWIDTH 8 0
BBX 8 14 0 -3
BITMAP
0000
0000
0000
0000
0000
dc00
6600
6600
6600
6600
6600
0000
0000
0000
ENDCHAR
STARTCHAR o
ENCODING 111
SWIDTH 666 0
DWIDTH 8 0
BBX 8 14 0 -3
BITMAP
0000
0000
0000
0000
0000
7c00
c600
c600
c600
c600
7c00
0000
0000
0000
ENDCHAR
STARTCHAR p
ENCODING 112
SWIDTH 666 0
DWIDTH 8 0
BBX 8 14 0 -3
BITMAP
0000
0000
0000
0000
0000
dc00
6600
6600
6600
7c00
6000
6000
f000
0000
ENDCHAR
STARTCHAR q
ENCODING 113
SWIDTH 666 0
DWIDTH 8 0
BBX 8 14 0 -3
BITMAP
0000
0000
0000
0000
0000
7600
cc00
cc00
cc00
7c00
0c00
0c00
1e00
0000
ENDCHAR
STARTCHAR r
ENCODING 114
SWIDTH 666 0
DWIDTH 8 0
BBX 8 14 0 -3
BITMAP
0000
0000
0000
0000
0000
dc00
6600
6000
6000
6000
f000
0000
0000
0000
ENDCHAR
STARTCHAR s
ENCODING 115
SWIDTH 666 0
DWIDTH 8 0
BBX 8 14 0 -3
BITMAP
0000
0000
0000
0000
0000
7c00
c600
7000
1c00
c600
7c00
0000
0000
0000
ENDCHAR
STARTCHAR t
ENCODING 116
SWIDTH 666 0
DWIDTH 8 0
BBX 8 14 0 -3
BITMAP
0000
0000
3000
3000
3000
fc00
3000
3000
3000
3600
1c00
0000
0000
0000
ENDCHAR
STARTCHAR u
ENCODING 117
SWIDTH 666 0
DWIDTH 8 0
BBX 8 14 0 -3
BITMAP
0000
0000
0000
0000
0000
cc00
cc00
cc00
cc00
cc00
7600
0000
0000
0000
ENDCHAR
STARTCHAR v
ENCODING 118
SWIDTH 666 0
DWIDTH 8 0
BBX 8 14 0 -3
BITMAP
0000
0000
0000
0000
0000
c600
c600
c600
6c00
3800
1000
0000
0000
0000
ENDCHAR
STARTCHAR w
ENCODING 119
SWIDTH 666 0
DWIDTH 8 0
BBX 8 14 0 -3
BITMAP
0000
0000
0000
0000
0000
c600
c600
d600
d600
fe00
6c00
0000
0000
0000
ENDCHAR
STARTCHAR x
ENCODING 120
SWIDTH 666 0
DWIDTH 8 0
BBX 8 14 0 -3
BITMAP
0000
0000
0000
0000
0000
c600
6c00
3800
3800
6c00
c600
0000
0000
0000
ENDCHAR
STARTCHAR y
ENCODING 121
SWIDTH 666 0
DWIDTH 8 0
BBX 8 14 0 -3
BITMAP
0000
0000
0000
0000
0000
c600
c600
c600
ce00
7600
0600
c600
7c00
0000
ENDCHAR
STARTCHAR z
ENCODING 122
SWIDTH 666 0
DWIDTH 8 0
BBX 8 14 0 -3
BITMAP
0000
0000
0000
0000
0000
fe00
8c00
1800
3000
6200
fe00
0000
0000
0000
ENDCHAR
STARTCHAR {
ENCODING 123
SWIDTH 666 0
DWIDTH 8 0
BBX 8 14 0 -3
BITMAP
0000
0000
0e00
1800
1800
1800
7000
1800
1800
1800
0e00
0000
0000
0000
ENDCHAR
STARTCHAR |
ENCODING 124
SWIDTH 666 0
DWIDTH 8 0
BBX 8 14 0 -3
BITMAP
0000
0000
1800
1800
1800
1800
0000
1800
1800
1800
1800
0000
0000
0000
ENDCHAR
STARTCHAR }
ENCODING 125
SWIDTH 666 0
DWIDTH 8 0
BBX 8 14 0 -3
BITMAP
0000
0000
7000
1800
1800
1800
0e00
1800
1800
1800
7000
0000
0000
0000
ENDCHAR
STARTCHAR ~
ENCODING 126
SWIDTH 666 0
DWIDTH 8 0
BBX 8 14 0 -3
BITMAP
0000
0000
7600
dc00
0000
0000
0000
0000
0000
0000
0000
0000
0000
0000
ENDCHAR
STARTCHAR C177
ENCODING 127
SWIDTH 666 0
DWIDTH 8 0
BBX 8 14 0 -3
BITMAP
0000
0000
0000
0000
1000
3800
3800
6c00
6c00
fe00
0000
0000
0000
0000
ENDCHAR
STARTCHAR vwall
ENCODING 128
SWIDTH 666 0
DWIDTH 8 0
BBX 8 14 0 -3
BITMAP
1800
1800
1800
1800
1800
1800
1800
1800
1800
1800
1800
1800
1800
1800
ENDCHAR
STARTCHAR hwall
ENCODING 129
SWIDTH 666 0
DWIDTH 8 0
BBX 8 14 0 -3
BITMAP
0000
0000
0000
0000
0000
0000
0000
ff00
0000
0000
0000
0000
0000
0000
ENDCHAR
STARTCHAR tlcorn
ENCODING 130
SWIDTH 666 0
DWIDTH 8 0
BBX 8 14 0 -3
BITMAP
0000
0000
0000
0000
0000
0000
0000
1f00
1800
1800
1800
1800
1800
1800
ENDCHAR
STARTCHAR trcorn
ENCODING 131
SWIDTH 666 0
DWIDTH 8 0
BBX 8 14 0 -3
BITMAP
0000
0000
0000
0000
0000
0000
0000
f800
1800
1800
1800
1800
1800
1800
ENDCHAR
STARTCHAR blcorn
ENCODING 132
SWIDTH 666 0
DWIDTH 8 0
BBX 8 14 0 -3
BITMAP
1800
1800
1800
1800
1800
1800
1800
1f00
0000
0000
0000
0000
0000
0000
ENDCHAR
STARTCHAR brcorn
ENCODING 133
SWIDTH 666 0
DWIDTH 8 0
BBX 8 14 0 -3
BITMAP
1800
1800
1800
1800
1800
1800
1800
f800
0000
0000
0000
0000
0000
0000
ENDCHAR
STARTCHAR crwall
ENCODING 134
SWIDTH 666 0
DWIDTH 8 0
BBX 8 14 0 -3
BITMAP
1800
1800
1800
1800
1800
1800
1800
ff00
1800
1800
1800
1800
1800
1800
ENDCHAR
STARTCHAR tuwall
ENCODING 135
SWIDTH 666 0
DWIDTH 8 0
BBX 8 14 0 -3
BITMAP
1800
1800
1800
1800
1800
1800
1800
ff00
0000
0000
0000
0000
0000
0000
ENDCHAR
STARTCHAR tdwall
ENCODING 136
SWIDTH 666 0
DWIDTH 8 0
BBX 8 14 0 -3
BITMAP
0000
0000
0000
0000
0000
0000
0000
ff00
1800
1800
1800
1800
1800
1800
ENDCHAR
STARTCHAR tlwall
ENCODING 137
SWIDTH 666 0
DWIDTH 8 0
BBX 8 14 0 -3
BITMAP
18
18
18
18
18
18
18
f8
18
18
18
18
18
18
ENDCHAR
STARTCHAR trwall
ENCODING 138
SWIDTH 666 0
DWIDTH 8 0
BBX 8 14 0 -3
BITMAP
18
18
18
18
18
18
18
1f
18
18
18
18
18
18
ENDCHAR
STARTCHAR ndoor
ENCODING 139
SWIDTH 666 0
DWIDTH 8 0
BBX 8 14 0 -3
BITMAP
0000
0000
0000
0000
0000
0000
1800
1800
0000
0000
0000
0000
0000
0000
ENDCHAR
STARTCHAR vodoor
ENCODING 140
SWIDTH 666 0
DWIDTH 8 0
BBX 8 14 0 -3
BITMAP
1800
1800
1800
1800
0000
0000
0000
7e00
0000
0000
0000
1800
1800
1800
ENDCHAR
STARTCHAR hodoor
ENCODING 141
SWIDTH 666 0
DWIDTH 8 0
BBX 8 14 0 -3
BITMAP
0000
0000
0000
1800
1800
1800
1800
9900
1800
1800
1800
0000
0000
0000
ENDCHAR
STARTCHAR vcdoor
ENCODING 142
SWIDTH 666 0
DWIDTH 8 0
BBX 8 14 0 -3
BITMAP
0000
0000
0000
1800
1800
1800
7e00
7e00
1800
1800
1800
0000
0000
0000
ENDCHAR
STARTCHAR hcdoor
ENCODING 143
SWIDTH 666 0
DWIDTH 8 0
BBX 8 14 0 -3
BITMAP
0000
0000
0000
1800
1800
1800
7e00
7e00
1800
1800
1800
0000
0000
0000
ENDCHAR
STARTCHAR room
ENCODING 144
SWIDTH 666 0
DWIDTH 8 0
BBX 8 14 0 -3
BITMAP
0000
0000
0000
0000
0000
0000
1800
1800
0000
0000
0000
0000
0000
0000
ENDCHAR
STARTCHAR dark corr
ENCODING 145
SWIDTH 666 0
DWIDTH 8 0
BBX 8 14 0 -3
BITMAP
1100
4400
1100
4400
1100
4400
1100
4400
1100
4400
1100
4400
1100
4400
ENDCHAR
STARTCHAR lit corr
ENCODING 146
SWIDTH 666 0
DWIDTH 8 0
BBX 8 14 0 -3
BITMAP
5500
aa00
5500
aa00
5500
aa00
5500
aa00
5500
aa00
5500
aa00
5500
aa00
ENDCHAR
STARTCHAR upstair
ENCODING 147
SWIDTH 666 0
DWIDTH 8 0
BBX 8 14 0 -3
BITMAP
0000
0000
0c00
1800
3000
6000
c000
6000
3000
1800
0c00
0000
0000
0000
ENDCHAR
STARTCHAR dnstair
ENCODING 148
SWIDTH 666 0
DWIDTH 8 0
BBX 8 14 0 -3
BITMAP
0000
0000
6000
3000
1800
0c00
0600
0c00
1800
3000
6000
0000
0000
0000
ENDCHAR
STARTCHAR trap
ENCODING 149
SWIDTH 666 0
DWIDTH 8 0
BBX 8 14 0 -3
BITMAP
0000
1000
3800
6c00
c600
0000
0000
0000
0000
0000
0000
0000
0000
0000
ENDCHAR
STARTCHAR web
ENCODING 150
SWIDTH 666 0
DWIDTH 8 0
BBX 8 14 0 -3
BITMAP
0100
0f00
3c00
c600
c200
6f00
3a00
3200
7300
5700
8c00
db00
7f00
2500
ENDCHAR
STARTCHAR pool
ENCODING 151
SWIDTH 666 0
DWIDTH 8 0
BBX 8 14 0 -3
BITMAP
7700
0000
ee00
bb00
0000
7700
dd00
0000
bb00
ee00
0000
dd00
7700
0000
ENDCHAR
STARTCHAR fountain
ENCODING 152
SWIDTH 666 0
DWIDTH 8 0
BBX 8 14 0 -3
BITMAP
1400
0000
3400
4a00
4900
8a00
2800
0200
5900
1800
3c00
3c00
ff00
ff00
ENDCHAR
STARTCHAR sink
ENCODING 153
SWIDTH 666 0
DWIDTH 8 0
BBX 8 14 0 -3
BITMAP
0000
0000
0000
2400
2400
7e00
2400
2400
7e00
2400
2400
0000
0000
0000
ENDCHAR
STARTCHAR throne
ENCODING 154
SWIDTH 666 0
DWIDTH 8 0
BBX 8 14 0 -3
BITMAP
0000
0000
0000
0400
0400
0400
0400
3c00
1400
3c00
2400
2400
ff00
ff00
ENDCHAR
STARTCHAR upladder
ENCODING 155
SWIDTH 666 0
DWIDTH 8 0
BBX 8 14 0 -3
BITMAP
0000
0000
0c00
1800
3000
6000
c000
6000
3000
1800
0c00
0000
0000
0000
ENDCHAR
STARTCHAR dnladder
ENCODING 156
SWIDTH 666 0
DWIDTH 8 0
BBX 8 14 0 -3
BITMAP
0000
0000
6000
3000
1800
0c00
0600
0c00
1800
3000
6000
0000
0000
0000
ENDCHAR
STARTCHAR dbvwall
ENCODING 157
SWIDTH 666 0
DWIDTH 8 0
BBX 8 14 0 -3
BITMAP
1800
3c00
7e00
7e00
3c00
3c00
3c00
3c00
3c00
3c00
7e00
7e00
3c00
1800
ENDCHAR
STARTCHAR dbhwall
ENCODING 158
SWIDTH 666 0
DWIDTH 8 0
BBX 8 14 0 -3
BITMAP
0000
0000
0000
0000
0000
2400
7e00
ff00
7e00
2400
0000
0000
0000
0000
ENDCHAR
STARTCHAR ice
ENCODING 159
SWIDTH 666 0
DWIDTH 8 0
BBX 8 14 0 -3
BITMAP
0000
0000
0000
0000
0000
2400
1800
1800
2400
0000
0000
0000
0000
0000
ENDCHAR
STARTCHAR lava
ENCODING 160
SWIDTH 666 0
DWIDTH 8 0
BBX 8 14 0 -3
BITMAP
0000
0000
0200
4000
2000
2000
0400
1000
9500
5500
5500
5e00
ff00
ff00
ENDCHAR
STARTCHAR vbeam
ENCODING 161
SWIDTH 666 0
DWIDTH 8 0
BBX 8 14 0 -3
BITMAP
1000
1c00
0800
1000
2000
4000
3000
1800
0400
0800
1000
2000
7000
1000
ENDCHAR
STARTCHAR hbeam
ENCODING 162
SWIDTH 666 0
DWIDTH 8 0
BBX 8 14 0 -3
BITMAP
0000
0000
0000
0000
0000
4000
6000
d100
0a00
0400
0000
0000
0000
0000
ENDCHAR
STARTCHAR lslant
ENCODING 163
SWIDTH 666 0
DWIDTH 8 0
BBX 8 14 0 -3
BITMAP
8000
6000
2000
2000
2000
1000
1000
0800
0c00
0200
0200
0200
0200
0100
ENDCHAR
STARTCHAR rslant
ENCODING 164
SWIDTH 666 0
DWIDTH 8 0
BBX 8 14 0 -3
BITMAP
0100
0100
0200
0200
0400
0400
0400
1800
2000
2000
4000
4000
4000
8000
ENDCHAR
STARTCHAR dig beam
ENCODING 165
SWIDTH 666 0
DWIDTH 8 0
BBX 8 14 0 -3
BITMAP
5500
0a00
1400
2800
5000
a000
4100
8200
0500
0a00
1400
2800
5000
aa00
ENDCHAR
STARTCHAR camera flash
ENCODING 166
SWIDTH 666 0
DWIDTH 8 0
BBX 8 14 0 -3
BITMAP
0000
0000
c800
4b00
0200
2000
0400
d800
1b00
2000
4400
5200
0a00
0000
ENDCHAR
STARTCHAR boom open left
ENCODING 167
SWIDTH 666 0
DWIDTH 8 0
BBX 8 14 0 -3
BITMAP
0000
0000
2000
1000
0800
0400
0200
0400
0800
1000
2000
0000
0000
0000
ENDCHAR
STARTCHAR boom open right
ENCODING 168
SWIDTH 666 0
DWIDTH 8 0
BBX 8 14 0 -3
BITMAP
0000
0000
0200
0400
0800
1000
2000
1000
0800
0400
0200
0000
0000
0000
ENDCHAR
STARTCHAR magic shield 1
ENCODING 169
SWIDTH 666 0
DWIDTH 8 0
BBX 8 14 0 -3
BITMAP
0000
0000
5000
1200
4200
0800
1000
3a00
1000
4400
5000
2c00
0400
2800
ENDCHAR
STARTCHAR magic shield 2
ENCODING 170
SWIDTH 666 0
DWIDTH 8 0
BBX 8 14 0 -3
BITMAP
3600
a800
5a00
da00
8400
f400
d500
3a00
d700
a500
fd00
6f00
3800
3600
ENDCHAR
STARTCHAR magic sheild 3
ENCODING 171
SWIDTH 666 0
DWIDTH 8 0
BBX 8 14 0 -3
BITMAP
0000
1c00
4300
0000
0800
2200
0000
4000
0800
0200
9a00
cc00
2200
0000
ENDCHAR
STARTCHAR magic shield 4
ENCODING 172
SWIDTH 666 0
DWIDTH 8 0
BBX 8 14 0 -3
BITMAP
6000
1000
6c00
5200
4000
1b00
4600
6b00
cd00
a200
a800
5600
3400
0000
ENDCHAR
STARTCHAR sw top left
ENCODING 173
SWIDTH 666 0
DWIDTH 8 0
BBX 8 14 0 -3
BITMAP
0000
0000
0000
0000
0000
0000
0000
0300
0400
0400
0800
0800
1000
1000
ENDCHAR
STARTCHAR sw top center
ENCODING 174
SWIDTH 666 0
DWIDTH 8 0
BBX 8 14 0 -3
BITMAP
0000
0000
0000
0000
0000
3c00
c300
0000
0000
0000
0000
0000
0000
0000
ENDCHAR
STARTCHAR sw top right
ENCODING 175
SWIDTH 666 0
DWIDTH 8 0
BBX 8 14 0 -3
BITMAP
0000
0000
0000
0000
0000
0000
0000
c000
2000
2000
1000
1000
0800
0800
ENDCHAR
STARTCHAR sw middle left
ENCODING 176
SWIDTH 666 0
DWIDTH 8 0
BBX 8 14 0 -3
BITMAP
1000
1000
2000
2000
2000
2000
2000
4000
2000
2000
2000
2000
1000
1000
ENDCHAR
STARTCHAR sw middle right
ENCODING 177
SWIDTH 666 0
DWIDTH 8 0
BBX 8 14 0 -3
BITMAP
0800
0800
0400
0400
0400
0400
0400
0200
0400
0400
0400
0400
0800
0800
ENDCHAR
STARTCHAR sw bottom left
ENCODING 178
SWIDTH 666 0
DWIDTH 8 0
BBX 8 14 0 -3
BITMAP
1000
1000
0800
0800
0400
0400
0300
0000
0000
0000
0000
0000
0000
0000
ENDCHAR
STARTCHAR sw bottom center
ENCODING 179
SWIDTH 666 0
DWIDTH 8 0
BBX 8 14 0 -3
BITMAP
0000
0000
0000
0000
0000
0000
0000
c300
3c00
0000
0000
0000
0000
0000
ENDCHAR
STARTCHAR sw bottom right
ENCODING 180
SWIDTH 666 0
DWIDTH 8 0
BBX 8 14 0 -3
BITMAP
0800
0800
1000
1000
2000
2000
c000
0000
0000
0000
0000
0000
0000
0000
ENDCHAR
STARTCHAR explosion1
ENCODING 181
SWIDTH 666 0
DWIDTH 8 0
BBX 8 14 0 -3
BITMAP
0000
0100
0e00
3100
ce00
3100
4600
9800
6700
9800
2300
4c00
9300
2400
ENDCHAR
STARTCHAR explosion2
ENCODING 182
SWIDTH 666 0
DWIDTH 8 0
BBX 8 14 0 -3
BITMAP
0000
ff00
0000
ff00
0000
ff00
0000
fe00
0100
fe00
0100
fe00
0100
7c00
ENDCHAR
STARTCHAR explosion3
ENCODING 183
SWIDTH 666 0
DWIDTH 8 0
BBX 8 14 0 -3
BITMAP
0000
0000
e000
1800
e600
1900
c400
3300
cd00
3200
8900
6400
9200
4900
ENDCHAR
STARTCHAR explosion4
ENCODING 184
SWIDTH 666 0
DWIDTH 8 0
BBX 8 14 0 -3
BITMAP
4900
5600
a500
aa00
4a00
5500
5500
5500
5500
5500
4a00
aa00
a500
5600
ENDCHAR
STARTCHAR explosion5
ENCODING 185
SWIDTH 666 0
DWIDTH 8 0
BBX 8 14 0 -3
BITMAP
8300
7c00
8300
7c00
8200
3900
4500
5500
4500
3900
8200
7c00
8300
7c00
ENDCHAR
STARTCHAR explosion6
ENCODING 186
SWIDTH 666 0
DWIDTH 8 0
BBX 8 14 0 -3
BITMAP
2500
d400
4a00
aa00
a500
5500
5500
5500
5500
5500
a500
aa00
4a00
d400
ENDCHAR
STARTCHAR explosion7
ENCODING 187
SWIDTH 666 0
DWIDTH 8 0
BBX 8 14 0 -3
BITMAP
4900
2400
9300
4c00
2300
9800
6700
b800
4e00
3100
ce00
3100
0e00
0100
ENDCHAR
STARTCHAR explosion8
ENCODING 188
SWIDTH 666 0
DWIDTH 8 0
BBX 8 14 0 -3
BITMAP
8300
7c00
0100
fe00
0100
fe00
0100
fe00
0000
ff00
0000
ff00
0000
ff00
ENDCHAR
STARTCHAR explosion9
ENCODING 189
SWIDTH 666 0
DWIDTH 8 0
BBX 8 14 0 -3
BITMAP
2500
4900
9200
6400
8900
3200
cc00
3b00
e400
1900
e600
1800
e000
0000
ENDCHAR
STARTCHAR C276
ENCODING 190
SWIDTH 666 0
DWIDTH 8 0
BBX 8 14 0 -3
BITMAP
1800
1800
1800
1800
1800
f800
1800
f800
0000
0000
0000
0000
0000
0000
ENDCHAR
STARTCHAR C203
ENCODING 191
SWIDTH 666 0
DWIDTH 8 0
BBX 8 14 0 -3
BITMAP
0000
3000
7800
cc00
0000
7800
0c00
7c00
cc00
dc00
7600
0000
0000
0000
ENDCHAR
STARTCHAR C204
ENCODING 192
SWIDTH 666 0
DWIDTH 8 0
BBX 8 14 0 -3
BITMAP
0000
0000
cc00
cc00
0000
7800
0c00
7c00
cc00
dc00
7600
0000
0000
0000
ENDCHAR
STARTCHAR C207
ENCODING 193
SWIDTH 666 0
DWIDTH 8 0
BBX 8 14 0 -3
BITMAP
0000
0000
0000
0000
7c00
c600
c000
c000
c600
7c00
1800
6c00
3800
0000
ENDCHAR
STARTCHAR C210
ENCODING 194
SWIDTH 666 0
DWIDTH 8 0
BBX 8 14 0 -3
BITMAP
0000
3000
7800
cc00
0000
7c00
c600
fe00
c000
c600
7c00
0000
0000
0000
ENDCHAR
STARTCHAR C303
ENCODING 195
SWIDTH 666 0
DWIDTH 8 0
BBX 8 14 0 -3
BITMAP
1800
1800
1800
1800
1800
1800
1800
1f00
1800
1800
1800
1800
1800
1800
ENDCHAR
STARTCHAR C201
ENCODING 196
SWIDTH 666 0
DWIDTH 8 0
BBX 8 14 0 -3
BITMAP
0000
0000
c600
c600
0000
c600
c600
c600
c600
ce00
7600
0000
0000
0000
ENDCHAR
STARTCHAR C206
ENCODING 197
SWIDTH 666 0
DWIDTH 8 0
BBX 8 14 0 -3
BITMAP
0000
3800
6c00
3800
0000
7800
0c00
7c00
cc00
dc00
7600
0000
0000
0000
ENDCHAR
STARTCHAR C200
ENCODING 198
SWIDTH 666 0
DWIDTH 8 0
BBX 8 14 0 -3
BITMAP
0000
0000
3c00
6600
c000
c000
c000
c600
6600
3c00
1800
cc00
3800
0000
ENDCHAR
STARTCHAR C264
ENCODING 199
SWIDTH 666 0
DWIDTH 8 0
BBX 8 14 0 -3
BITMAP
1800
1800
1800
1800
1800
1800
1800
f800
1800
1800
1800
1800
1800
1800
ENDCHAR
STARTCHAR C333
ENCODING 200
SWIDTH 666 0
DWIDTH 8 0
BBX 8 14 0 -3
BITMAP
ff00
ff00
ff00
ff00
ff00
ff00
ff00
ff00
ff00
ff00
ff00
ff00
ff00
ff00
ENDCHAR
STARTCHAR C334
ENCODING 201
SWIDTH 666 0
DWIDTH 8 0
BBX 8 14 0 -3
BITMAP
0000
0000
0000
0000
0000
0000
0000
ff00
ff00
ff00
ff00
ff00
ff00
ff00
ENDCHAR
STARTCHAR C335
ENCODING 202
SWIDTH 666 0
DWIDTH 8 0
BBX 8 14 0 -3
BITMAP
f000
f000
f000
f000
f000
f000
f000
f000
f000
f000
f000
f000
f000
f000
ENDCHAR
STARTCHAR C336
ENCODING 203
SWIDTH 666 0
DWIDTH 8 0
BBX 8 14 0 -3
BITMAP
0f00
0f00
0f00
0f00
0f00
0f00
0f00
0f00
0f00
0f00
0f00
0f00
0f00
0f00
ENDCHAR
STARTCHAR C337
ENCODING 204
SWIDTH 666 0
DWIDTH 8 0
BBX 8 14 0 -3
BITMAP
ff00
ff00
ff00
ff00
ff00
ff00
ff00
0000
0000
0000
0000
0000
0000
0000
ENDCHAR
STARTCHAR C272
ENCODING 205
SWIDTH 666 0
DWIDTH 8 0
BBX 8 14 0 -3
BITMAP
3600
3600
3600
3600
3600
3600
3600
3600
3600
3600
3600
3600
3600
3600
ENDCHAR
STARTCHAR C273
ENCODING 206
SWIDTH 666 0
DWIDTH 8 0
BBX 8 14 0 -3
BITMAP
0000
0000
0000
0000
0000
fe00
0600
f600
3600
3600
3600
3600
3600
3600
ENDCHAR
STARTCHAR C236
ENCODING 207
SWIDTH 666 0
DWIDTH 8 0
BBX 8 14 0 -3
BITMAP
0000
fc00
c600
fc00
c000
cc00
de00
cc00
cc00
cc00
c600
0000
0000
0000
ENDCHAR
STARTCHAR amulet
ENCODING 208
SWIDTH 666 0
DWIDTH 8 0
BBX 8 14 0 -3
BITMAP
0000
3c00
4200
4200
4200
2200
2200
1c00
3e00
3e00
3e00
1c00
0000
0000
ENDCHAR
STARTCHAR food
ENCODING 209
SWIDTH 666 0
DWIDTH 8 0
BBX 8 14 0 -3
BITMAP
0000
0000
0000
0000
0000
0000
7c00
7c00
3800
1000
1000
1000
7c00
0000
ENDCHAR
STARTCHAR weapon
ENCODING 210
SWIDTH 666 0
DWIDTH 8 0
BBX 8 14 0 -3
BITMAP
2000
3000
2800
2800
2800
2800
2800
2800
3800
fe00
3000
3000
3000
3000
ENDCHAR
STARTCHAR tool
ENCODING 211
SWIDTH 666 0
DWIDTH 8 0
BBX 8 14 0 -3
BITMAP
0000
0000
0000
0000
0000
3c00
4200
4200
7e00
7e00
7e00
7e00
0000
0000
ENDCHAR
STARTCHAR ball
ENCODING 212
SWIDTH 666 0
DWIDTH 8 0
BBX 8 14 0 -3
BITMAP
0000
0000
0000
0000
0000
0000
0000
0000
1c00
3e00
3e00
7e00
ad00
7600
ENDCHAR
STARTCHAR chain
ENCODING 213
SWIDTH 666 0
DWIDTH 8 0
BBX 8 14 0 -3
BITMAP
0000
0000
0000
0000
0000
0000
0000
0000
0000
0000
0000
6600
9900
6600
ENDCHAR
STARTCHAR rock
ENCODING 214
SWIDTH 666 0
DWIDTH 8 0
BBX 8 14 0 -3
BITMAP
0000
3c00
6600
5200
8500
d200
a900
a000
4500
9300
bf00
6a00
fe00
7f00
ENDCHAR
STARTCHAR armor
ENCODING 215
SWIDTH 666 0
DWIDTH 8 0
BBX 8 14 0 -3
BITMAP
0000
0000
0000
0000
0000
7c00
6c00
5400
6c00
5400
2800
1000
0000
0000
ENDCHAR
STARTCHAR potion
ENCODING 216
SWIDTH 666 0
DWIDTH 8 0
BBX 8 14 0 -3
BITMAP
0000
0000
3c00
1800
1800
1800
1800
3c00
6e00
7a00
5e00
7600
3c00
0000
ENDCHAR
STARTCHAR scroll
ENCODING 217
SWIDTH 666 0
DWIDTH 8 0
BBX 8 14 0 -3
BITMAP
0000
0000
7e00
ff00
7e00
2a00
5400
2a00
5400
2a00
7e00
ff00
7e00
0000
ENDCHAR
STARTCHAR wand
ENCODING 218
SWIDTH 666 0
DWIDTH 8 0
BBX 8 14 0 -3
BITMAP
2200
2400
1500
0200
0800
0800
1000
1000
1000
2000
2000
2000
4000
0000
ENDCHAR
STARTCHAR ring
ENCODING 219
SWIDTH 666 0
DWIDTH 8 0
BBX 8 14 0 -3
BITMAP
0000
4200
2400
8300
3800
4500
4400
4400
3900
8200
2900
4800
0000
0000
ENDCHAR
STARTCHAR gem
ENCODING 220
SWIDTH 666 0
DWIDTH 8 0
BBX 8 14 0 -3
BITMAP
0000
0000
0000
0000
0000
0000
0000
0000
7c00
c600
4400
3800
1000
0000
ENDCHAR
STARTCHAR gold
ENCODING 221
SWIDTH 666 0
DWIDTH 8 0
BBX 8 14 0 -3
BITMAP
0000
0000
0000
5400
5400
a500
a900
8a00
0000
6000
be00
fb00
df00
3800
ENDCHAR
STARTCHAR venom
ENCODING 222
SWIDTH 666 0
DWIDTH 8 0
BBX 8 14 0 -3
BITMAP
0000
0000
0000
0000
0000
0000
1800
2400
4400
5800
2000
0000
0000
0000
ENDCHAR
STARTCHAR spbook
ENCODING 223
SWIDTH 666 0
DWIDTH 8 0
BBX 8 14 0 -3
BITMAP
0000
0000
0000
7c00
4600
6600
4600
4600
4600
6600
4600
7e00
7e00
0000
ENDCHAR
STARTCHAR C262
ENCODING 224
SWIDTH 666 0
DWIDTH 8 0
BBX 8 14 0 -3
BITMAP
dd00
7700
dd00
7700
dd00
7700
dd00
7700
dd00
7700
dd00
7700
dd00
7700
ENDCHAR
STARTCHAR C341
ENCODING 225
SWIDTH 666 0
DWIDTH 8 0
BBX 8 14 0 -3
BITMAP
0000
0000
0000
0000
7800
cc00
d800
fc00
c600
e600
dc00
c000
c000
0000
ENDCHAR
STARTCHAR C342
ENCODING 226
SWIDTH 666 0
DWIDTH 8 0
BBX 8 14 0 -3
BITMAP
0000
0000
fe00
6600
6200
6000
6000
6000
6000
6000
6000
0000
0000
0000
ENDCHAR
STARTCHAR C343
ENCODING 227
SWIDTH 666 0
DWIDTH 8 0
BBX 8 14 0 -3
BITMAP
0000
0000
0000
0000
0000
fe00
6c00
6c00
6c00
6c00
6c00
0000
0000
0000
ENDCHAR
STARTCHAR C344
ENCODING 228
SWIDTH 666 0
DWIDTH 8 0
BBX 8 14 0 -3
BITMAP
0000
0000
fe00
c600
6200
3000
1800
3000
6200
c600
fe00
0000
0000
0000
ENDCHAR
STARTCHAR C345
ENCODING 229
SWIDTH 666 0
DWIDTH 8 0
BBX 8 14 0 -3
BITMAP
0000
0000
0000
0000
0000
7e00
d800
cc00
cc00
cc00
7800
0000
0000
0000
ENDCHAR
STARTCHAR C346
ENCODING 230
SWIDTH 666 0
DWIDTH 8 0
BBX 8 14 0 -3
BITMAP
0000
0000
0000
0000
6600
6600
6600
6600
7c00
6000
c000
8000
0000
0000
ENDCHAR
STARTCHAR C347
ENCODING 231
SWIDTH 666 0
DWIDTH 8 0
BBX 8 14 0 -3
BITMAP
0000
0000
0000
0000
0000
7600
dc00
1800
1800
1800
1800
0000
0000
0000
ENDCHAR
STARTCHAR C350
ENCODING 232
SWIDTH 666 0
DWIDTH 8 0
BBX 8 14 0 -3
BITMAP
0000
0000
fe00
3800
6c00
c600
c600
c600
6c00
3800
fe00
0000
0000
0000
ENDCHAR
STARTCHAR C351
ENCODING 233
SWIDTH 666 0
DWIDTH 8 0
BBX 8 14 0 -3
BITMAP
0000
0000
3800
6c00
c600
c600
fe00
c600
c600
6c00
3800
0000
0000
0000
ENDCHAR
STARTCHAR C352
ENCODING 234
SWIDTH 666 0
DWIDTH 8 0
BBX 8 14 0 -3
BITMAP
0000
0000
3800
6c00
c600
c600
c600
6c00
6c00
6c00
ee00
0000
0000
0000
ENDCHAR
STARTCHAR C353
ENCODING 235
SWIDTH 666 0
DWIDTH 8 0
BBX 8 14 0 -3
BITMAP
0000
0000
3e00
6000
3000
3c00
6600
c600
c600
cc00
7800
0000
0000
0000
ENDCHAR
STARTCHAR C354
ENCODING 236
SWIDTH 666 0
DWIDTH 8 0
BBX 8 14 0 -3
BITMAP
0000
0000
0000
0000
0000
7e00
db00
db00
7e00
0000
0000
0000
0000
0000
ENDCHAR
STARTCHAR C355
ENCODING 237
SWIDTH 666 0
DWIDTH 8 0
BBX 8 14 0 -3
BITMAP
0000
0000
0600
0c00
7c00
de00
f600
e600
7c00
6000
c000
0000
0000
0000
ENDCHAR
STARTCHAR C356
ENCODING 238
SWIDTH 666 0
DWIDTH 8 0
BBX 8 14 0 -3
BITMAP
0000
0000
1c00
3000
6000
6000
7c00
6000
6000
3000
1c00
0000
0000
0000
ENDCHAR
STARTCHAR C357
ENCODING 239
SWIDTH 666 0
DWIDTH 8 0
BBX 8 14 0 -3
BITMAP
0000
0000
7c00
c600
c600
c600
c600
c600
c600
c600
c600
0000
0000
0000
ENDCHAR
STARTCHAR C360
ENCODING 240
SWIDTH 666 0
DWIDTH 8 0
BBX 8 14 0 -3
BITMAP
0000
0000
0000
0000
0000
fe00
0000
fe00
0000
fe00
0000
0000
0000
0000
ENDCHAR
STARTCHAR C361
ENCODING 241
SWIDTH 666 0
DWIDTH 8 0
BBX 8 14 0 -3
BITMAP
0000
0000
0000
0000
1800
1800
7e00
1800
1800
0000
7e00
0000
0000
0000
ENDCHAR
STARTCHAR C362
ENCODING 242
SWIDTH 666 0
DWIDTH 8 0
BBX 8 14 0 -3
BITMAP
0000
0000
3000
1800
0c00
0600
0c00
1800
3000
0000
7e00
0000
0000
0000
ENDCHAR
STARTCHAR C363
ENCODING 243
SWIDTH 666 0
DWIDTH 8 0
BBX 8 14 0 -3
BITMAP
0000
0000
0c00
1800
3000
6000
3000
1800
0c00
0000
7e00
0000
0000
0000
ENDCHAR
STARTCHAR C364
ENCODING 244
SWIDTH 666 0
DWIDTH 8 0
BBX 8 14 0 -3
BITMAP
0000
0000
0000
0c00
1e00
1a00
1800
1800
1800
1800
1800
1800
1800
1800
ENDCHAR
STARTCHAR C365
ENCODING 245
SWIDTH 666 0
DWIDTH 8 0
BBX 8 14 0 -3
BITMAP
1800
1800
1800
1800
1800
1800
1800
1800
1800
5800
7800
3000
0000
0000
ENDCHAR
STARTCHAR C366
ENCODING 246
SWIDTH 666 0
DWIDTH 8 0
BBX 8 14 0 -3
BITMAP
0000
0000
0000
1800
1800
0000
7e00
0000
1800
1800
0000
0000
0000
0000
ENDCHAR
STARTCHAR C225
ENCODING 247
SWIDTH 666 0
DWIDTH 8 0
BBX 8 14 0 -3
BITMAP
0000
3000
1800
0c00
0000
7c00
c600
c600
c600
c600
7c00
0000
0000
0000
ENDCHAR
STARTCHAR C370
ENCODING 248
SWIDTH 666 0
DWIDTH 8 0
BBX 8 14 0 -3
BITMAP
0000
0000
7800
cc00
cc00
7800
0000
0000
0000
0000
0000
0000
0000
0000
ENDCHAR
STARTCHAR C371
ENCODING 249
SWIDTH 666 0
DWIDTH 8 0
BBX 8 14 0 -3
BITMAP
0000
0000
0000
0000
0000
0000
1800
1800
0000
0000
0000
0000
0000
0000
ENDCHAR
STARTCHAR C372
ENCODING 250
SWIDTH 666 0
DWIDTH 8 0
BBX 8 14 0 -3
BITMAP
0000
0000
0000
0000
0000
0000
0000
1800
0000
0000
0000
0000
0000
0000
ENDCHAR
STARTCHAR C373
ENCODING 251
SWIDTH 666 0
DWIDTH 8 0
BBX 8 14 0 -3
BITMAP
0000
0000
0000
1f00
1800
1800
1800
1800
d800
7800
3800
1800
0000
0000
ENDCHAR
STARTCHAR C374
ENCODING 252
SWIDTH 666 0
DWIDTH 8 0
BBX 8 14 0 -3
BITMAP
0000
d800
6c00
6c00
6c00
6c00
0000
0000
0000
0000
0000
0000
0000
0000
ENDCHAR
STARTCHAR C375
ENCODING 253
SWIDTH 666 0
DWIDTH 8 0
BBX 8 14 0 -3
BITMAP
0000
7000
d800
3000
6000
f800
0000
0000
0000
0000
0000
0000
0000
0000
ENDCHAR
STARTCHAR C376
ENCODING 254
SWIDTH 666 0
DWIDTH 8 0
BBX 8 14 0 -3
BITMAP
0000
0000
0000
0000
7e00
7e00
7e00
7e00
7e00
7e00
0000
0000
0000
0000
ENDCHAR
STARTCHAR C377
ENCODING 255
SWIDTH 666 0
DWIDTH 8 0
BBX 8 14 0 -3
BITMAP
0000
0000
0000
0000
0000
0000
0000
0000
0000
0000
0000
0000
0000
0000
ENDCHAR
ENDFONT
